# xmcd
#
# Track frame offsets:
#	150
#	11881
#	27838
#	40325
#	58891
#	78601
#	97417
#	111964
#	126813
#	144194
#	160524
#	172444
#	184411
#
# Disc length: 2638 seconds
# Revision: 0
# Processed by: cddbd v1.5.2PL0 Copyright (c) Steve Scherf et al.
# Submitted via: dBpowerAMP V12.0
#
DISCID=bd0a4c0d
DTITLE=Laura Boosinger and George Shuffler - Mountain Treasures
DYEAR=2003
DGENRE=Country
TTITLE0=Lonesome Road Blues
TTITLE1=Little Annie
TTITLE2=Cluck Old Hen
TTITLE3=Will the Circle Be Unbroken
TTITLE4=Grave in the Pines
TTITLE5=Down in the Valley
TTITLE6=Rabbit in the Log
TTITLE7=Little Georgia Rose
TTITLE8=Sail Away Ladies
TTITLE9=Down in the Willow Garden
TTITLE10=Pass Me Not
TTITLE11=Red Rocking Chair
TTITLE12=Hop High Ladies
EXTD=
EXTT0=
EXTT1=
EXTT2=
EXTT3=
EXTT4=
EXTT5=
EXTT6=
EXTT7=
EXTT8=
EXTT9=
EXTT10=
EXTT11=
EXTT12=
PLAYORDER=
